<svg width="1200" height="1200" version="1.1" xmlns="http://www.w3.org/2000/svg"
    desc="Created with imagetracer.js version 1.2.6">
    <path fill="rgb(0,0,0)" stroke="rgb(0,0,0)" stroke-width="1" opacity="0.8235294117647058"
        d="M 634.5 508 Q 648.6 506.4 656 511.5 L 655 517 L 638.5 514 L 633.5 515 L 629 518.5 L 628 526.5 L 630 531 L 650.5 540 L 656 545.5 Q 659.5 549.5 658 558.5 L 650.5 568 Q 642.9 572.9 628.5 571 L 620 569 L 620 562 L 622.5 562 L 627.5 564 L 639.5 565 L 646.5 563 L 650 559.5 L 651 552.5 L 646.5 546 L 629.5 539 L 624 534.5 Q 619.3 529.7 621 518.5 L 624 513 L 634.5 508 Z " />
    <path fill="rgb(0,0,0)" stroke="rgb(0,0,0)" stroke-width="1" opacity="0.8235294117647058"
        d="M 185 509 L 218.5 509 L 219 509.5 L 219 515 L 192 515 L 192 535 L 216.5 535 L 217 535.5 L 217 541 L 192 541 L 192 564 L 218.5 564 L 219 564.5 L 219 570 L 185 570 L 185 509 Z " />
    <path fill="rgb(0,0,0)" stroke="rgb(0,0,0)" stroke-width="1" opacity="0.8235294117647058"
        d="M 224 509 L 232 509 L 232 511.5 L 249.5 560 L 256 538.5 L 267.5 509 L 275 509.5 L 253 570 L 245 570 L 245 567.5 L 224 509 Z " />
    <path fill="rgb(0,0,0)" stroke="rgb(0,0,0)" stroke-width="1" opacity="0.8235294117647058"
        d="M 283 509 L 316.5 509 L 317 509.5 L 317 515 L 291.5 515 L 290 516.5 L 290 535 L 315.5 535 L 316 535.5 L 316 541 L 291.5 541 L 290 542.5 L 290 562.5 L 291.5 564 L 316.5 564 L 317 564.5 L 317 570 L 283 570 L 283 509 Z " />
    <path fill="rgb(0,0,0)" stroke="rgb(0,0,0)" stroke-width="1" opacity="0.8235294117647058"
        d="M 331 509 L 338.5 509 L 341 511.5 L 371.5 559 L 372 509 L 378.5 509 L 379 509.5 L 379 570 L 370.5 570 L 369 568.5 L 337.5 519 L 337 526.5 L 338 527.5 L 338 570 L 331.5 570 L 331 569.5 L 331 509 Z " />
    <path fill="rgb(0,0,0)" stroke="rgb(0,0,0)" stroke-width="1" opacity="0.8235294117647058"
        d="M 388 509 L 433.5 509 L 434 509.5 L 434 515 L 415.5 515 L 414 516.5 L 414 569.5 L 413.5 570 L 407 570 L 407 515.5 L 406.5 515 L 388 515 L 388 509 Z " />
    <path fill="rgb(0,0,0)" stroke="rgb(0,0,0)" stroke-width="1" opacity="0.8235294117647058"
        d="M 465 509 L 488.5 509 Q 497.8 510.8 502 517.5 Q 505.1 521.9 504 530.5 Q 502.4 539.4 495.5 543 L 486.5 546 L 473.5 546 L 472 547.5 L 472 569.5 L 471.5 570 L 465 570 L 465 509 Z M 474 515 L 472 517 L 472 540 Q 485 542 493 537 L 496 533 Q 498 524 495 521 Q 489 513 474 515 Z " />
    <path fill="rgb(0,0,0)" stroke="rgb(0,0,0)" stroke-width="1" opacity="0.8235294117647058"
        d="M 516 509 L 523.5 509 L 524 509.5 L 524 554.5 Q 525.4 560.6 530.5 563 L 536.5 565 L 542.5 565 L 550.5 562 L 553 559.5 L 556 551.5 L 556 509 L 562.5 509 L 563 509.5 L 563 553.5 Q 561 563.5 553.5 568 L 545.5 571 L 533.5 571 Q 524.3 569.3 520 562.5 L 517 556.5 Q 518.3 551.7 516 550.5 L 516 509 Z " />
    <path fill="rgb(0,0,0)" stroke="rgb(0,0,0)" stroke-width="1" opacity="0.8235294117647058"
        d="M 579 509 L 585.5 509 L 586 509.5 L 586 562.5 L 587.5 564 L 613 564 L 613 569.5 L 612.5 570 L 579 570 L 579 509 Z " />
    <path fill="rgb(0,0,0)" stroke="rgb(0,0,0)" stroke-width="1" opacity="0.8235294117647058"
        d="M 671 509 L 704.5 509 L 705 509.5 L 705 515 L 678 515 L 678 535 L 702.5 535 L 703 535.5 L 703 541 L 678 541 L 678 564 L 704.5 564 L 705 564.5 L 705 570 L 671 570 L 671 509 Z " />
    <path fill="rgb(0,0,0)" stroke="rgb(0,0,0)" stroke-width="1" opacity="0.8235294117647058"
        d="M 885.5 510 L 996.5 510 L 1002 513.5 L 1004 517.5 L 1004 580.5 L 1000.5 586 L 996.5 588 L 978 588 Q 980.2 599 974 602.5 L 984 604 Q 982.3 595 987.5 592 Q 990.5 589 997.5 590 L 1004 595.5 L 1005 606.5 L 1001 612.5 Q 1012.5 612 1016 619.5 L 1018 625.5 L 1018 643.5 Q 1016.3 647.5 1010 646 L 1007 683 L 1004.5 684 L 984.5 684 L 982 683 L 980.5 670 L 980 673 L 956.5 673 L 955 671.5 L 954.5 670 L 954 681.5 L 951.5 684 L 930.5 684 L 928 681.5 L 928 672.5 L 926.5 672 L 925.5 673 L 902.5 673 L 901 672.5 L 900 681.5 L 897.5 684 L 876.5 684 L 875 682.5 L 874 680.5 L 874 668.5 L 873 667.5 L 872 646 L 865.5 646 L 865 644.5 L 864 643.5 L 864 623.5 L 870.5 615 Q 874 612 881 612.5 L 879 612 L 876 604 L 136.5 604 Q 135.5 604 136 599.5 L 137.5 598 L 877 598 Q 877.5 593.3 881.5 591 L 889.5 590 L 896 594.5 L 897 598 L 903 598 L 903 603 L 906.5 603 L 905 600.5 Q 901.5 596.3 903 588 L 885.5 588 L 879 583.5 L 878 580.5 L 878 516.5 L 882.5 511 L 885.5 510 Z M 887 514 L 885 515 L 882 519 L 882 568 L 883 568 L 896 568 L 897 572 L 884 572 L 882 574 L 883 582 L 887 584 L 906 584 L 911 580 Q 920 579 923 584 L 959 584 L 965 580 Q 973 579 976 584 L 995 584 L 998 583 L 999 582 L 999 572 L 980 572 L 979 574 L 972 579 L 966 577 L 963 574 L 963 572 L 906 572 L 905 570 L 907 568 L 963 568 L 968 562 L 976 563 L 980 568 L 999 568 L 999 517 L 996 514 L 887 514 Z M 970 566 L 967 569 L 968 573 Q 967 576 973 574 Q 976 573 975 569 Q 974 565 970 566 Z M 913 584 L 911 585 L 907 591 Q 906 597 909 599 L 912 600 Q 919 601 920 597 Q 921 590 919 587 Q 918 583 913 584 Z M 966 584 L 961 589 Q 959 598 965 600 L 972 599 L 974 596 L 973 588 Q 972 583 966 584 Z M 924 588 Q 926 599 920 603 L 930 604 L 931 596 L 938 590 Q 945 589 948 592 Q 952 596 952 605 Q 955 602 961 603 L 957 598 L 957 589 L 957 588 L 924 588 Z M 886 594 L 884 595 L 882 598 L 893 598 Q 892 593 886 594 Z M 940 594 L 938 595 L 934 600 L 935 608 Q 937 612 944 610 L 947 606 Q 948 599 946 596 L 943 594 L 940 594 Z M 993 594 L 991 595 L 988 599 Q 986 608 992 610 L 999 609 L 1001 605 L 1000 598 Q 999 593 993 594 Z M 919 603 L 916 605 L 911 604 L 909 605 L 914 607 Q 918 607 920 604 L 919 603 Z M 973 603 L 970 605 L 965 604 L 963 605 L 968 607 Q 972 607 974 604 L 973 603 Z M 881 604 L 882 609 L 885 610 Q 892 611 893 607 L 893 604 L 881 604 Z M 901 608 L 897 610 L 896 613 L 905 615 L 910 623 L 910 645 Q 909 647 904 646 L 904 657 L 905 658 L 905 669 L 923 669 L 924 646 Q 919 647 918 645 L 918 623 L 920 619 Q 924 613 932 613 L 931 610 L 928 608 Q 920 607 918 611 L 911 611 Q 908 607 901 608 Z M 955 608 L 953 609 L 950 613 Q 956 612 960 616 L 964 624 L 964 645 Q 962 648 957 646 L 958 649 L 958 661 L 959 662 L 959 669 L 976 669 L 977 666 L 978 646 Q 973 647 972 645 L 972 622 L 973 620 Q 977 613 986 613 L 981 608 L 976 608 L 972 611 L 965 611 Q 962 607 955 608 Z M 1000 613 L 993 615 L 991 615 L 993 617 Q 999 618 1001 614 L 1000 613 Z M 883 614 Q 883 618 890 617 L 891 614 L 888 615 L 883 614 Z M 938 614 L 937 616 L 940 617 L 944 616 Q 946 617 945 614 L 941 615 L 938 614 Z M 874 618 L 869 623 L 868 627 L 868 641 L 874 641 L 876 644 L 878 677 L 879 678 L 880 679 L 896 679 L 898 646 L 899 642 L 906 641 L 906 625 L 904 621 L 901 618 Q 893 617 891 621 L 884 621 Q 881 617 874 618 Z M 928 618 L 926 619 L 922 625 L 922 641 Q 922 642 928 641 L 930 645 L 931 669 L 932 670 L 932 679 L 949 679 L 950 677 L 952 644 Q 954 640 960 641 L 960 626 L 955 618 Q 947 617 945 621 L 938 621 Q 935 617 928 618 Z M 982 618 L 980 619 L 976 624 L 976 641 L 983 642 L 984 649 L 984 661 L 985 662 L 985 673 L 986 674 L 986 679 L 1003 679 L 1006 642 L 1013 641 L 1013 624 L 1012 622 L 1008 618 L 1003 618 L 999 621 L 992 621 Q 989 617 982 618 Z " />
    <path fill="rgb(0,0,0)" stroke="rgb(0,0,0)" stroke-width="1" opacity="0.8235294117647058"
        d="M 935.5 518 L 946.5 519 L 957 526.5 Q 963.8 532.7 962 547.5 Q 959.2 556.2 952.5 561 L 944.5 565 L 933.5 565 Q 925 562.5 920 556.5 Q 914.7 550.3 915 538.5 Q 917.4 527.4 925.5 522 L 935.5 518 Z M 934 523 L 928 526 Q 922 530 920 537 Q 918 550 924 555 L 935 561 Q 945 562 950 558 Q 956 554 958 546 Q 959 535 954 530 L 945 523 L 934 523 Z " />
    <path fill="rgb(0,0,0)" stroke="rgb(0,0,0)" stroke-width="1" opacity="0.8235294117647058"
        d="M 932.5 529 Q 943.5 533.5 951 541.5 L 950 544 L 936.5 553 L 931 554 L 931 530.5 L 932.5 529 Z M 936 535 L 936 548 L 943 543 Q 945 544 944 542 L 936 535 Z " />
    <path fill="rgb(0,0,0)" stroke="rgb(0,0,0)" stroke-width="1" opacity="0.8235294117647058"
        d="M 234 640 L 237 640.5 L 237 664 L 234 663.5 L 234 640 Z " />
    <path fill="rgb(0,0,0)" stroke="rgb(0,0,0)" stroke-width="1" opacity="0.8235294117647058"
        d="M 279 640 L 281 640.5 L 281 648.5 L 282.5 648 L 289.5 647 L 292 648 L 293 650.5 L 293 664 L 290 663.5 L 290 650.5 L 288.5 650 L 285.5 649 L 282 651.5 L 281 664 L 279 663.5 L 279 640 Z " />
    <path fill="rgb(0,0,0)" stroke="rgb(0,0,0)" stroke-width="1" opacity="0.8235294117647058"
        d="M 393 640 L 396 640.5 L 396 664 L 393 663.5 L 393 640 Z " />
    <path fill="rgb(0,0,0)" stroke="rgb(0,0,0)" stroke-width="1" opacity="0.8235294117647058"
        d="M 494.5 640 Q 500.6 638.8 500 641.5 Q 498.7 644.3 497.5 642 L 494 643 L 494 647 Q 499.2 645.3 498 649 L 494 649 L 494 663.5 L 491 664 L 491 649.5 L 488.5 649 L 489.5 647 Q 492.1 647.8 491 644.5 L 494.5 640 Z " />
    <path fill="rgb(0,0,0)" stroke="rgb(0,0,0)" stroke-width="1" opacity="0.8235294117647058"
        d="M 165 641 L 176.5 641 L 177 643 L 168.5 643 L 167 644.5 L 167 652 L 176.5 652 L 177 654 L 168.5 654 L 167 655.5 L 167 663.5 L 165 664 L 165 641 Z " />
    <path fill="rgb(0,0,0)" stroke="rgb(0,0,0)" stroke-width="1" opacity="0.8235294117647058"
        d="M 342 641 Q 351.6 639.2 356 643.5 L 357 650.5 Q 354.7 657 345 655 L 345 664 L 342 664 L 342 641 Z M 345 643 L 345 653 L 353 652 L 354 650 L 353 644 L 345 643 Z " />
    <path fill="rgb(0,0,0)" stroke="rgb(0,0,0)" stroke-width="1" opacity="0.8235294117647058"
        d="M 518.5 641 Q 522.9 639.5 522 642.5 L 527.5 652 L 533.5 641 L 536 641.5 L 529 653.5 L 529 664 L 526 664 L 526 655.5 L 518.5 641 Z " />
    <path fill="rgb(0,0,0)" stroke="rgb(0,0,0)" stroke-width="1" opacity="0.8235294117647058"
        d="M 629 641 L 640.5 641 L 641 643 L 632.5 643 L 631 644.5 L 631 651 L 640.5 651 L 641 653 L 632.5 653 L 631 654.5 Q 629.5 660.5 632.5 662 L 640.5 662 L 641 664 L 629 664 L 629 641 Z " />
    <path fill="rgb(0,0,0)" stroke="rgb(0,0,0)" stroke-width="1" opacity="0.8235294117647058"
        d="M 263.5 643 L 265 643 L 265 647 L 270 647 L 270 649 L 265 649 L 265 660.5 L 270 662.5 Q 269 665 264.5 664 L 262 661.5 L 262 649 L 259 648.5 L 262 647 L 263.5 643 Z " />
    <path fill="rgb(0,0,0)" stroke="rgb(0,0,0)" stroke-width="1" opacity="0.8235294117647058"
        d="M 724 643 Q 727.7 641.8 726 647 L 731 647 L 731 649 L 726 649 L 726 659.5 Q 727.2 662.8 731 662 Q 732.4 665.7 726.5 664 L 724 663 Q 721.9 658 723 649 Q 720 650 721 647 L 724 645.5 L 724 643 Z " />
    <path fill="rgb(0,0,0)" stroke="rgb(0,0,0)" stroke-width="1" opacity="0.8235294117647058"
        d="M 190.5 647 Q 197 646 199 649.5 L 200 656 L 189 656 L 189 659.5 L 195.5 662 L 200 661 Q 201.1 663.7 198.5 663 Q 197 665.5 191.5 664 L 186 659.5 Q 184 649 190.5 647 Z M 193 649 L 191 650 L 189 654 L 197 654 L 197 652 Q 197 648 193 649 Z " />
    <path fill="rgb(0,0,0)" stroke="rgb(0,0,0)" stroke-width="1" opacity="0.8235294117647058"
        d="M 214.5 647 Q 221 646 223 649.5 L 224 656 L 212.5 656 L 212 657.5 L 214.5 661 L 219.5 662 L 223 661 L 221.5 664 Q 213.5 665.5 211 661.5 L 209 655.5 L 212.5 648 L 214.5 647 Z M 216 649 Q 212 650 213 654 L 221 654 L 221 652 Q 220 648 216 649 Z " />
    <path fill="rgb(0,0,0)" stroke="rgb(0,0,0)" stroke-width="1" opacity="0.8235294117647058"
        d="M 308.5 647 Q 315 646 317 649.5 L 318 656 L 306.5 656 L 306 657.5 L 308.5 661 L 313.5 662 L 317 661 L 315.5 664 Q 307.5 665.5 305 661.5 L 303 655.5 L 306.5 648 L 308.5 647 Z M 310 649 Q 306 650 307 654 L 315 654 L 315 652 Q 314 648 310 649 Z " />
    <path fill="rgb(0,0,0)" stroke="rgb(0,0,0)" stroke-width="1" opacity="0.8235294117647058"
        d="M 367 647 L 370 647.5 L 370 659.5 Q 370.5 662.5 374.5 662 L 378 659.5 L 379 657.5 L 379 647 L 381 647.5 L 381 664 Q 378.3 665.1 379 662.5 L 377.5 663 L 370.5 664 L 367 660.5 L 367 647 Z " />
    <path fill="rgb(0,0,0)" stroke="rgb(0,0,0)" stroke-width="1" opacity="0.8235294117647058"
        d="M 408.5 647 Q 415.2 645.2 417 648.5 Q 417.8 651.1 414.5 650 L 410.5 649 L 408 650 L 410.5 654 L 417 656 L 418 659.5 L 415.5 663 L 406.5 664 L 405 661 L 412.5 662 L 415 661 L 413.5 657 L 406 653.5 L 405 650.5 L 408.5 647 Z " />
    <path fill="rgb(0,0,0)" stroke="rgb(0,0,0)" stroke-width="1" opacity="0.8235294117647058"
        d="M 431.5 647 Q 438 646 440 649.5 L 441 656 L 429.5 656 L 429 657.5 L 431.5 661 L 436.5 662 L 440 661 L 438.5 664 Q 430.5 665.5 428 661.5 L 426 655.5 L 429.5 648 L 431.5 647 Z M 433 649 Q 429 650 430 654 L 438 654 L 438 652 Q 437 648 433 649 Z " />
    <path fill="rgb(0,0,0)" stroke="rgb(0,0,0)" stroke-width="1" opacity="0.8235294117647058"
        d="M 469.5 647 Q 477.1 645.9 479 650.5 L 480 658.5 L 476.5 663 L 469.5 664 L 466 661.5 Q 463.3 659.2 464 653.5 L 467.5 648 L 469.5 647 Z M 472 649 L 467 653 Q 466 660 471 662 L 476 661 L 477 659 Q 478 652 476 650 L 472 649 Z " />
    <path fill="rgb(0,0,0)" stroke="rgb(0,0,0)" stroke-width="1" opacity="0.8235294117647058"
        d="M 548.5 647 Q 555.8 645.8 558 649.5 L 560 656.5 L 556.5 663 L 548.5 664 Q 542 662 544 651.5 L 548.5 647 Z M 551 649 L 549 650 L 547 652 L 547 660 L 551 662 L 555 661 L 557 658 L 556 652 L 551 649 Z " />
    <path fill="rgb(0,0,0)" stroke="rgb(0,0,0)" stroke-width="1" opacity="0.8235294117647058"
        d="M 570 647 L 573 647.5 L 573 660.5 L 574.5 661 L 577.5 662 L 581 659.5 L 581 647.5 L 584 647 L 584 663.5 L 582 664 L 581.5 662 Q 579.5 665 573.5 664 L 570 661.5 L 570 647 Z " />
    <path fill="rgb(0,0,0)" stroke="rgb(0,0,0)" stroke-width="1" opacity="0.8235294117647058"
        d="M 595 647 Q 599.1 645.3 598 649.5 L 601.5 647 Q 606.3 645.3 605 649.5 L 602.5 650 L 599 651.5 L 598 653.5 L 598 664 L 595 663.5 L 595 647 Z " />
    <path fill="rgb(0,0,0)" stroke="rgb(0,0,0)" stroke-width="1" opacity="0.8235294117647058"
        d="M 649.5 647 L 653 648.5 L 657.5 661 L 662 647 Q 665.8 645.5 665 648.5 L 659 664 Q 653.8 666.1 655 661.5 L 649.5 647 Z " />
    <path fill="rgb(0,0,0)" stroke="rgb(0,0,0)" stroke-width="1" opacity="0.8235294117647058"
        d="M 677.5 647 Q 684 646 686 649.5 L 687 656 L 676 656 L 676 659.5 L 682.5 662 L 687 661 Q 688.1 663.7 685.5 663 Q 684 665.5 678.5 664 L 673 659.5 Q 671 649 677.5 647 Z M 680 649 L 678 650 L 676 654 L 684 654 L 684 652 Q 684 648 680 649 Z " />
    <path fill="rgb(0,0,0)" stroke="rgb(0,0,0)" stroke-width="1" opacity="0.8235294117647058"
        d="M 697 647 Q 700.8 645.5 700 648.5 L 701.5 648 L 708.5 647 L 712 650.5 L 712 664 L 709 663.5 L 709 651.5 Q 708.5 648.5 704.5 649 L 701 651.5 L 700 653.5 L 700 664 L 697 663.5 L 697 647 Z " />
    <path fill="rgb(0,0,0)" stroke="rgb(0,0,0)" stroke-width="1" opacity="0.8235294117647058"
        d="M 742.5 647 Q 748.6 645.9 751 648.5 L 747.5 650 L 743.5 649 L 742 653 Q 748.1 653.3 751 657.5 Q 752 662 749.5 663 L 740.5 664 L 739 661 L 746.5 662 Q 751.5 659.5 746.5 657 L 739 652.5 L 740 648 L 742.5 647 Z " />
    <path fill="rgb(0,0,0)" stroke="rgb(0,0,0)" stroke-width="1" opacity="0"
        d="M 0 0 L 1200 0 L 1200 1200 L 0 1200 L 0 0 Z M 635 508 L 624 513 L 621 519 Q 619 530 624 535 L 630 539 L 647 546 L 651 553 L 650 560 L 647 563 L 640 565 L 628 564 L 623 562 L 620 562 L 620 569 L 629 571 Q 643 573 651 568 L 658 559 Q 660 550 656 546 L 651 540 L 630 531 L 628 527 L 629 519 L 634 515 L 639 514 L 655 517 L 656 512 Q 649 506 635 508 Z M 185 509 L 185 570 L 219 570 L 219 565 L 219 564 L 192 564 L 192 541 L 217 541 L 217 536 L 217 535 L 192 535 L 192 515 L 219 515 L 219 510 L 219 509 L 185 509 Z M 224 509 L 245 568 L 245 570 L 253 570 L 275 510 L 268 509 L 256 539 L 250 560 L 232 512 L 232 509 L 224 509 Z M 283 509 L 283 570 L 317 570 L 317 565 L 317 564 L 292 564 L 290 563 L 290 543 L 292 541 L 316 541 L 316 536 L 316 535 L 290 535 L 290 517 L 292 515 L 317 515 L 317 510 L 317 509 L 283 509 Z M 331 509 L 331 570 L 332 570 L 338 570 L 338 528 L 337 527 L 338 519 L 369 569 L 371 570 L 379 570 L 379 510 L 379 509 L 372 509 L 372 559 L 341 512 L 339 509 L 331 509 Z M 388 509 L 388 515 L 407 515 L 407 516 L 407 570 L 414 570 L 414 570 L 414 517 L 416 515 L 434 515 L 434 510 L 434 509 L 388 509 Z M 465 509 L 465 570 L 472 570 L 472 570 L 472 548 L 474 546 L 487 546 L 496 543 Q 502 539 504 531 Q 505 522 502 518 Q 498 511 489 509 L 465 509 Z M 516 509 L 516 551 Q 518 552 517 557 L 520 563 Q 524 569 534 571 L 546 571 L 554 568 Q 561 563 563 554 L 563 510 L 563 509 L 556 509 L 556 552 L 553 560 L 551 562 L 543 565 L 537 565 L 531 563 Q 525 561 524 555 L 524 510 L 524 509 L 516 509 Z M 579 509 L 579 570 L 613 570 L 613 570 L 613 564 L 588 564 L 586 563 L 586 510 L 586 509 L 579 509 Z M 671 509 L 671 570 L 705 570 L 705 565 L 705 564 L 678 564 L 678 541 L 703 541 L 703 536 L 703 535 L 678 535 L 678 515 L 705 515 L 705 510 L 705 509 L 671 509 Z M 886 510 L 883 511 L 878 517 L 878 581 L 879 584 L 886 588 L 903 588 Q 902 596 905 601 L 907 603 L 903 603 L 903 598 L 897 598 L 896 595 L 890 590 L 882 591 Q 877 593 877 598 L 138 598 L 136 600 Q 135 604 137 604 L 876 604 L 879 612 L 886 615 L 891 614 L 890 617 Q 882 618 881 613 Q 874 612 871 615 L 864 624 L 864 644 L 865 645 L 866 646 L 872 646 L 873 668 L 874 669 L 874 681 L 875 683 L 877 684 L 898 684 L 900 682 L 901 673 L 903 673 L 926 673 L 927 672 L 928 673 L 928 682 L 931 684 L 952 684 L 954 682 L 955 670 L 955 672 L 957 673 L 980 673 L 981 670 L 982 683 L 985 684 L 1005 684 L 1007 683 L 1010 646 Q 1016 648 1018 644 L 1018 626 L 1016 620 L 1008 613 L 1002 613 Q 1000 618 993 617 L 991 615 L 993 615 L 1001 613 L 1005 607 L 1004 596 L 998 590 Q 991 589 988 592 Q 982 595 984 604 L 981 603 L 975 603 L 970 607 L 965 606 L 963 603 L 966 605 Q 971 606 974 603 Q 980 600 978 588 L 997 588 L 1001 586 L 1004 581 L 1004 518 L 1002 514 L 997 510 L 886 510 Z M 234 640 L 234 664 L 237 664 L 237 641 L 234 640 Z M 279 640 L 279 664 L 281 664 L 282 652 L 286 649 L 289 650 L 290 651 L 290 664 L 293 664 L 293 651 L 292 648 L 290 647 L 283 648 L 281 649 L 281 641 L 279 640 Z M 393 640 L 393 664 L 396 664 L 396 641 L 393 640 Z M 495 640 L 491 645 Q 492 648 490 647 L 489 649 L 491 650 L 491 664 L 494 664 L 494 649 L 498 649 Q 499 645 494 647 L 494 643 L 498 642 Q 499 644 500 642 Q 501 639 495 640 Z M 165 641 L 165 664 L 167 664 L 167 656 L 169 654 L 177 654 L 177 652 L 167 652 L 167 645 L 169 643 L 177 643 L 177 641 L 165 641 Z M 342 641 L 342 664 L 345 664 L 345 655 Q 355 657 357 651 L 356 644 Q 352 639 342 641 Z M 519 641 L 526 656 L 526 664 L 529 664 L 529 654 L 536 642 L 534 641 L 528 652 L 522 643 Q 523 640 519 641 Z M 629 641 L 629 664 L 641 664 L 641 662 L 633 662 Q 629 660 631 655 L 633 653 L 641 653 L 641 651 L 631 651 L 631 645 L 633 643 L 641 643 L 641 641 L 629 641 Z M 264 643 L 262 647 L 259 649 L 262 649 L 262 662 L 265 664 Q 269 665 270 663 L 265 661 L 265 649 L 270 649 L 270 647 L 265 647 L 265 643 L 264 643 Z M 724 643 L 724 646 L 721 647 Q 720 650 723 649 Q 722 658 724 663 L 727 664 Q 732 666 731 662 Q 727 663 726 660 L 726 649 L 731 649 L 731 647 L 726 647 Q 728 642 724 643 Z M 191 647 Q 184 649 186 660 L 192 664 Q 197 666 199 663 Q 201 664 200 661 L 196 662 L 189 660 L 189 656 L 200 656 L 199 650 Q 197 646 191 647 Z M 215 647 L 213 648 L 209 656 L 211 662 Q 214 665 222 664 L 223 661 L 220 662 L 215 661 L 212 658 L 213 656 L 224 656 L 223 650 Q 221 646 215 647 Z M 309 647 L 307 648 L 303 656 L 305 662 Q 308 665 316 664 L 317 661 L 314 662 L 309 661 L 306 658 L 307 656 L 318 656 L 317 650 Q 315 646 309 647 Z M 367 647 L 367 661 L 371 664 L 378 663 L 379 663 Q 378 665 381 664 L 381 648 L 379 647 L 379 658 L 378 660 L 375 662 Q 371 663 370 660 L 370 648 L 367 647 Z M 409 647 L 405 651 L 406 654 L 414 657 L 415 661 L 413 662 L 405 661 L 407 664 L 416 663 L 418 660 L 417 656 L 411 654 L 408 650 L 411 649 L 415 650 Q 418 651 417 649 Q 415 645 409 647 Z M 432 647 L 430 648 L 426 656 L 428 662 Q 431 665 439 664 L 440 661 L 437 662 L 432 661 L 429 658 L 430 656 L 441 656 L 440 650 Q 438 646 432 647 Z M 470 647 L 468 648 L 464 654 Q 463 659 466 662 L 470 664 L 477 663 L 480 659 L 479 651 Q 477 646 470 647 Z M 549 647 L 544 652 Q 542 662 549 664 L 557 663 L 560 657 L 558 650 Q 556 646 549 647 Z M 570 647 L 570 662 L 574 664 Q 580 665 582 662 L 582 664 L 584 664 L 584 647 L 581 648 L 581 660 L 578 662 L 575 661 L 573 661 L 573 648 L 570 647 Z M 595 647 L 595 664 L 598 664 L 598 654 L 599 652 L 603 650 L 605 650 Q 606 645 602 647 L 598 650 Q 599 645 595 647 Z M 650 647 L 655 662 Q 654 666 659 664 L 665 649 Q 666 645 662 647 L 658 661 L 653 649 L 650 647 Z M 678 647 Q 671 649 673 660 L 679 664 Q 684 666 686 663 Q 688 664 687 661 L 683 662 L 676 660 L 676 656 L 687 656 L 686 650 Q 684 646 678 647 Z M 697 647 L 697 664 L 700 664 L 700 654 L 701 652 L 705 649 Q 709 648 709 652 L 709 664 L 712 664 L 712 651 L 709 647 L 702 648 L 700 649 Q 701 645 697 647 Z M 743 647 L 740 648 L 739 653 L 747 657 Q 752 660 747 662 L 739 661 L 741 664 L 750 663 Q 752 662 751 658 Q 748 653 742 653 L 744 649 L 748 650 L 751 649 Q 749 646 743 647 Z " />
    <path fill="rgb(0,0,0)" stroke="rgb(0,0,0)" stroke-width="1" opacity="0"
        d="M 886.5 514 L 995.5 514 L 999 516.5 L 999 568 L 979.5 568 L 975.5 563 L 967.5 562 L 963 568 L 906.5 568 L 905 569.5 L 905.5 572 L 962.5 572 L 963 573.5 L 965.5 577 L 971.5 579 L 979 573.5 L 979.5 572 L 999 572 L 999 581.5 L 997.5 583 L 994.5 584 L 975.5 584 Q 973.3 578.7 964.5 580 L 958.5 584 L 922.5 584 Q 919.7 578.8 910.5 580 L 905.5 584 L 886.5 584 L 883 581.5 L 882 573.5 L 883.5 572 L 897 572 L 895.5 568 L 882.5 568 L 882 567.5 L 882 518.5 L 884.5 515 L 886.5 514 Z M 936 518 L 926 522 Q 917 527 915 539 Q 915 550 920 557 Q 925 562 934 565 L 945 565 L 953 561 Q 959 556 962 548 Q 964 533 957 527 L 947 519 L 936 518 Z " />
    <path fill="rgb(0,0,0)" stroke="rgb(0,0,0)" stroke-width="1" opacity="0"
        d="M 473.5 515 Q 488.9 513.1 495 520.5 Q 497.7 524.3 496 532.5 L 492.5 537 Q 485.1 541.8 472 540 L 472 516.5 L 473.5 515 Z " />
    <path fill="rgb(0,0,0)" stroke="rgb(0,0,0)" stroke-width="1" opacity="0"
        d="M 933.5 523 L 944.5 523 L 954 529.5 Q 958.9 534.6 958 545.5 Q 955.9 553.9 949.5 558 Q 944.7 562.2 934.5 561 L 924 554.5 Q 918 549.5 920 536.5 Q 922.3 529.8 927.5 526 L 933.5 523 Z M 933 529 L 931 531 L 931 554 L 937 553 L 950 544 L 951 542 Q 944 533 933 529 Z " />
    <path fill="rgb(0,0,0)" stroke="rgb(0,0,0)" stroke-width="1" opacity="0"
        d="M 935.5 535 L 944 541.5 Q 944.8 543.8 942.5 543 L 935.5 548 L 935.5 535 Z " />
    <path fill="rgb(0,0,0)" stroke="rgb(0,0,0)" stroke-width="1" opacity="0"
        d="M 969.5 566 Q 974.3 565.3 975 568.5 Q 975.8 573.3 972.5 574 Q 967.1 575.9 968 572.5 L 967 568.5 L 969.5 566 Z " />
    <path fill="rgb(0,0,0)" stroke="rgb(0,0,0)" stroke-width="1" opacity="0"
        d="M 912.5 584 Q 917.6 583.4 919 586.5 Q 921.3 589.7 920 596.5 Q 918.7 601.3 911.5 600 L 909 599 Q 906.4 596.7 907 590.5 L 910.5 585 L 912.5 584 Z " />
    <path fill="rgb(0,0,0)" stroke="rgb(0,0,0)" stroke-width="1" opacity="0"
        d="M 965.5 584 Q 972 583 973 587.5 L 974 595.5 L 971.5 599 L 964.5 600 Q 959.5 597.5 961 588.5 L 965.5 584 Z " />
    <path fill="rgb(0,0,0)" stroke="rgb(0,0,0)" stroke-width="1" opacity="0"
        d="M 924 588 L 956.5 588 L 957 588.5 L 957 597.5 L 961 602.5 Q 954.8 602.3 951.5 605 Q 952.3 595.7 947.5 592 Q 944.5 589 937.5 590 L 931 595.5 L 930 604 L 920.5 603 Q 918.7 606.6 913.5 607 L 908 603.5 L 909.5 604 L 915.5 605 L 923 599.5 L 924 597.5 L 924 588 Z " />
    <path fill="rgb(0,0,0)" stroke="rgb(0,0,0)" stroke-width="1" opacity="0"
        d="M 885.5 594 Q 891.7 593.3 893 597.5 L 881.5 598 L 883.5 595 L 885.5 594 Z " />
    <path fill="rgb(0,0,0)" stroke="rgb(0,0,0)" stroke-width="1" opacity="0"
        d="M 939.5 594 L 942.5 594 L 946 596 Q 947.9 598.7 947 605.5 L 943.5 610 Q 936.5 611.5 935 607.5 L 934 599.5 L 937.5 595 L 939.5 594 Z " />
    <path fill="rgb(0,0,0)" stroke="rgb(0,0,0)" stroke-width="1" opacity="0"
        d="M 992.5 594 Q 998.7 593.3 1000 597.5 L 1001 604.5 L 998.5 609 L 991.5 610 Q 986 608 988 598.5 L 990.5 595 L 992.5 594 Z " />
    <path fill="rgb(0,0,0)" stroke="rgb(0,0,0)" stroke-width="1" opacity="0"
        d="M 881 604 L 892.5 604 L 893 606.5 Q 891.7 611.2 884.5 610 L 882 609 L 881 604 Z " />
    <path fill="rgb(0,0,0)" stroke="rgb(0,0,0)" stroke-width="1" opacity="0"
        d="M 900.5 608 Q 908.3 606.7 910.5 611 L 917.5 611 Q 919.7 606.7 927.5 608 L 931 610 L 932 612.5 Q 923.6 613.1 920 618.5 L 918 622.5 L 918 644.5 Q 919.4 647.3 924 646 L 923 669 L 905 669 L 905 657.5 L 904 656.5 L 904 646 Q 908.6 647.3 910 644.5 L 910 622.5 L 904.5 615 L 896 612.5 L 897 610 L 900.5 608 Z " />
    <path fill="rgb(0,0,0)" stroke="rgb(0,0,0)" stroke-width="1" opacity="0"
        d="M 954.5 608 Q 962.3 606.7 964.5 611 L 971.5 611 L 975.5 608 L 980.5 608 L 986 612.5 Q 976.8 613.3 973 619.5 L 972 621.5 L 972 644.5 Q 973.4 647.3 978 646 L 977 665.5 L 976 669 L 959 669 L 959 661.5 L 958 660.5 L 958 648.5 L 957 646 Q 962.4 647.5 964 644.5 L 964 623.5 L 959.5 616 Q 956.1 612.3 950 613 L 952.5 609 L 954.5 608 Z " />
    <path fill="rgb(0,0,0)" stroke="rgb(0,0,0)" stroke-width="1" opacity="0"
        d="M 937.5 614 L 940.5 615 L 945 614 Q 946.1 616.7 943.5 616 L 939.5 617 L 937 616 L 937.5 614 Z " />
    <path fill="rgb(0,0,0)" stroke="rgb(0,0,0)" stroke-width="1" opacity="0"
        d="M 873.5 618 Q 881.3 616.7 883.5 621 L 890.5 621 Q 893.1 617.1 900.5 618 L 904 620.5 L 906 624.5 L 906 641 L 899 642 L 898 645.5 L 896 679 L 879.5 679 L 879 677.5 L 878 676.5 L 876 643.5 L 873.5 641 L 868 641 L 868 626.5 L 869 622.5 L 873.5 618 Z " />
    <path fill="rgb(0,0,0)" stroke="rgb(0,0,0)" stroke-width="1" opacity="0"
        d="M 927.5 618 Q 935.3 616.7 937.5 621 L 944.5 621 Q 946.7 616.7 954.5 618 L 960 625.5 L 960 641 Q 953.7 639.5 952 643.5 L 950 676.5 L 949 679 L 932 679 L 932 669.5 L 931 668.5 L 930 644.5 L 927.5 641 Q 922.1 641.6 922 640.5 L 922 624.5 L 925.5 619 L 927.5 618 Z " />
    <path fill="rgb(0,0,0)" stroke="rgb(0,0,0)" stroke-width="1" opacity="0"
        d="M 981.5 618 Q 988.9 617.1 991.5 621 L 998.5 621 L 1002.5 618 L 1007.5 618 L 1012 621.5 L 1013 623.5 L 1013 641 L 1006 642 L 1003 679 L 986 679 L 986 673.5 L 985 672.5 L 985 661.5 L 984 660.5 L 984 648.5 L 983 642 L 976 641 L 976 623.5 L 979.5 619 L 981.5 618 Z " />
    <path fill="rgb(0,0,0)" stroke="rgb(0,0,0)" stroke-width="1" opacity="0"
        d="M 345 643 L 353 644 L 354 649.5 L 353 652 L 345 653 L 345 643 Z " />
    <path fill="rgb(0,0,0)" stroke="rgb(0,0,0)" stroke-width="1" opacity="0"
        d="M 192.5 649 Q 196.5 648.5 197 651.5 L 197 654 L 189 654 L 190.5 650 L 192.5 649 Z " />
    <path fill="rgb(0,0,0)" stroke="rgb(0,0,0)" stroke-width="1" opacity="0"
        d="M 215.5 649 Q 220.3 648.3 221 651.5 L 221 654 L 213 654 Q 212.3 650.2 215.5 649 Z " />
    <path fill="rgb(0,0,0)" stroke="rgb(0,0,0)" stroke-width="1" opacity="0"
        d="M 309.5 649 Q 314.3 648.3 315 651.5 L 315 654 L 307 654 Q 306.3 650.2 309.5 649 Z " />
    <path fill="rgb(0,0,0)" stroke="rgb(0,0,0)" stroke-width="1" opacity="0"
        d="M 432.5 649 Q 437.3 648.3 438 651.5 L 438 654 L 430 654 Q 429.3 650.2 432.5 649 Z " />
    <path fill="rgb(0,0,0)" stroke="rgb(0,0,0)" stroke-width="1" opacity="0"
        d="M 471.5 649 L 476 650 Q 477.8 652.4 477 658.5 L 476 661 L 470.5 662 Q 465.9 660.1 467 652.5 L 471.5 649 Z " />
    <path fill="rgb(0,0,0)" stroke="rgb(0,0,0)" stroke-width="1" opacity="0"
        d="M 550.5 649 L 556 651.5 L 557 657.5 L 554.5 661 L 550.5 662 L 547 659.5 L 547 651.5 L 548.5 650 L 550.5 649 Z " />
    <path fill="rgb(0,0,0)" stroke="rgb(0,0,0)" stroke-width="1" opacity="0"
        d="M 679.5 649 Q 683.5 648.5 684 651.5 L 684 654 L 676 654 L 677.5 650 L 679.5 649 Z " />
</svg>